<svg width="210" height="210" viewBox="0 0 210 210" fill="none" xmlns="http://www.w3.org/2000/svg">
<path d="M1.35396 49.8655C1.4143 22.8766 23.342 1.04672 50.3309 1.10706L160.283 1.35288C187.272 1.41321 209.102 23.3409 209.041 50.3298L208.796 160.282C208.735 187.271 186.808 209.101 159.819 209.04L49.8665 208.795C22.8777 208.734 1.0478 186.807 1.10814 159.818L1.35396 49.8655Z" fill="#FF2773"/>
<path d="M40.8239 136.038L89.2535 135.213C90.4742 135.213 91.4812 136.252 92.2746 138.332C93.1291 140.411 93.9531 142.062 94.7465 143.286C96.6385 146.221 99.7512 147.689 104.085 147.689C108.479 147.689 112.019 146.68 114.704 144.662C117.39 142.582 118.732 139.922 118.732 136.681C118.732 133.439 117.908 131.238 116.261 130.076C114.613 128.852 112.812 127.69 110.859 126.59C108.906 125.428 106.007 124.541 102.162 123.929C98.3779 123.318 96.3028 122.951 95.9366 122.828H96.1197L90.9014 121.452C87.5446 120.841 84.7371 120.168 82.4789 119.434C67.892 115.52 57.3333 110.597 50.8028 104.664C44.3333 98.7322 41.0986 90.7511 41.0986 80.7212C41.0986 73.4435 42.4413 66.8996 45.1268 61.0896C47.8122 55.2796 51.3216 50.5399 55.6549 46.8704C68.1667 36.2901 85.439 31 107.472 31C124.988 31 138.751 34.1802 148.761 40.5406H148.669C155.077 45.1886 159.472 49.7754 161.852 54.3011C164.232 58.7656 165.728 64.3004 166.338 70.9054L163.958 73.2906C147.906 73.9022 133.685 74.2079 121.296 74.2079C117.573 74.2079 115.345 73.1071 114.613 70.9054C114.308 69.9881 113.972 69.0707 113.606 68.1533C112.751 65.9516 110.005 64.8508 105.366 64.8508H105C101.399 64.8508 98.3169 65.707 95.7535 67.4194C93.1901 69.0707 91.8779 70.6914 91.8169 72.2815C91.8169 73.8716 92.1526 75.1865 92.8239 76.2261C93.5563 77.2658 94.3192 78.0915 95.1127 78.703C95.9061 79.3146 97.1268 79.9568 98.7746 80.6295C100.423 81.2411 101.643 81.6692 102.437 81.9138C103.291 82.0973 104.603 82.4337 106.373 82.9229L109.577 83.7485C110.859 84.1155 114.582 85.0329 120.746 86.5006C126.972 87.9684 132.16 89.3751 136.31 90.7205V90.6288C149.31 95.0321 158.16 100.536 162.859 107.141C167.62 113.685 170 121.33 170 130.076C170 153.377 156.115 168.483 128.345 175.393C120.289 177.412 111.683 178.849 102.528 179.705C91.2981 179.705 80.1901 178.054 69.2042 174.751C58.2183 171.449 50.8638 166.067 47.1408 158.606C44.6385 154.997 42.9601 151.695 42.1056 148.698C41.2512 145.64 40.5493 141.39 40 135.947C40.1831 136.008 40.4577 136.038 40.8239 136.038Z" fill="white"/>
</svg>
